<svg width="140" height="130" viewBox="0 0 140 130" fill="none" xmlns="http://www.w3.org/2000/svg">
<path d="M1.40168 13.1591C1.85403 13.1591 2.22413 12.789 2.22413 12.3366V3.96418C2.22413 2.68116 3.26863 1.64489 4.54341 1.64489H12.9159C13.3682 1.64489 13.7383 1.27479 13.7383 0.822443C13.7383 0.370099 13.3682 0 12.9159 0H4.54341C2.35572 0 0.579239 1.77648 0.579239 3.96418V12.3366C0.579239 12.789 0.949338 13.1591 1.40168 13.1591Z" fill="#141414"/>
<path d="M3.96405 129.087H12.3365C12.7889 129.087 13.159 128.717 13.159 128.265C13.159 127.813 12.7889 127.442 12.3365 127.442H3.96405C2.68927 127.442 1.64476 126.398 1.64476 125.123V116.751C1.64476 116.298 1.27466 115.928 0.822321 115.928C0.369977 115.928 -0.00012207 116.298 -0.00012207 116.751V125.123C-0.00012207 127.311 1.77635 129.087 3.96405 129.087Z" fill="#141414"/>
<path d="M127.663 0C127.211 0 126.841 0.370099 126.841 0.822443C126.841 1.27479 127.211 1.64489 127.663 1.64489H136.036C137.319 1.64489 138.355 2.68939 138.355 3.96418V12.3366C138.355 12.789 138.725 13.1591 139.178 13.1591C139.63 13.1591 140 12.789 140 12.3366V3.96418C140 1.77648 138.224 0 136.036 0H127.663Z" fill="#141414"/>
<path d="M127.663 128.789H136.036C138.224 128.789 140 127.013 140 124.825V116.453C140 116 139.63 115.63 139.178 115.63C138.725 115.63 138.355 116 138.355 116.453V124.825C138.355 126.108 137.311 127.144 136.036 127.144H127.663C127.211 127.144 126.841 127.515 126.841 127.967C126.841 128.419 127.211 128.789 127.663 128.789Z" fill="#141414"/>
</svg>
